<?xml version="1.0" encoding="utf-8"?>
<svg viewBox="0 0 1143 266" fill="none" xmlns="http://www.w3.org/2000/svg">
  <defs>
    <linearGradient id="paint1_linear_361_1710" x1="416.035" y1="964.232" x2="393.734" y2="-97.7984" gradientUnits="userSpaceOnUse" gradientTransform="matrix(0.290852, 0, 0, 0.290001, -2.576668, -1.00527)">
      <stop stop-color="#1C1C20"/>
      <stop offset="1" stop-color="#066f4e"/>
    </linearGradient>
    <linearGradient id="paint2_linear_361_1710" x1="416.035" y1="964.232" x2="393.734" y2="-97.7984" gradientUnits="userSpaceOnUse" gradientTransform="matrix(0.290852, 0, 0, 0.290001, -2.576668, -1.00527)">
      <stop stop-color="#1C1C20"/>
      <stop offset="1" stop-color="#066f4e"/>
    </linearGradient>
    <linearGradient id="paint3_linear_361_1710" x1="416.035" y1="964.232" x2="393.734" y2="-97.7984" gradientUnits="userSpaceOnUse" gradientTransform="matrix(0.290852, 0, 0, 0.290001, -2.576668, -1.00527)">
      <stop stop-color="#066f4e"/>
      <stop offset="1" stop-color="#1C1C20"/>
    </linearGradient>
    <linearGradient id="paint0_linear_361_1710" x1="416.035" y1="964.232" x2="393.734" y2="-97.7984" gradientUnits="userSpaceOnUse" gradientTransform="matrix(0.290852, 0, 0, 0.290001, -1.520203, -0.489084)">
      <stop stop-color="#066f4e"/>
      <stop offset="1" stop-color="#1C1C20"/>
    </linearGradient>
  </defs>
  <path d="M79.6157 121.765L79.6156 121.765L79.6197 121.778C80.6734 125.085 81.4946 128.897 82.3973 133.089L82.4019 133.11C85.3524 146.812 89.1323 164.366 104.71 180.229C104.626 180.271 104.536 180.318 104.438 180.368C103.864 180.667 103.049 181.116 102.08 181.719C100.143 182.925 97.5829 184.753 95.0939 187.242C92.605 189.731 90.7768 192.291 89.5707 194.228C88.9673 195.197 88.5186 196.012 88.22 196.586C88.1692 196.684 88.1227 196.775 88.0806 196.858C72.218 181.281 54.664 177.501 40.9618 174.55L40.9401 174.546C36.7483 173.643 32.9366 172.822 29.6295 171.768L29.6295 171.768L29.6164 171.764C23.2836 169.935 17.3106 166.525 12.3188 161.533C-3.43959 145.775 -3.43959 120.226 12.3188 104.467C28.0771 88.7088 53.6265 88.7088 69.3849 104.467C74.3766 109.459 77.7865 115.432 79.6157 121.765ZM186.384 144.236L186.384 144.236L186.38 144.223C185.327 140.916 184.505 137.104 183.603 132.912L183.598 132.89C180.648 119.188 176.868 101.634 161.29 85.7715C161.374 85.7293 161.464 85.6828 161.562 85.632C162.136 85.3334 162.951 84.8847 163.92 84.2813C165.857 83.0752 168.417 81.247 170.906 78.7581C173.395 76.2692 175.223 73.7092 176.429 71.7721C177.033 70.803 177.481 69.9883 177.78 69.4141C177.831 69.3163 177.877 69.2255 177.919 69.1421C193.782 84.7197 211.336 88.4996 225.038 91.4501L225.06 91.4548C229.252 92.3574 233.063 93.1786 236.371 94.2323L236.37 94.2324L236.384 94.2362C242.716 96.0655 248.689 99.4753 253.681 104.467C269.44 120.226 269.44 145.775 253.681 161.533C237.923 177.292 212.374 177.292 196.615 161.533C191.623 156.541 188.214 150.569 186.384 144.236ZM94.2323 29.6293L94.2325 29.6293L94.2363 29.6162C96.0655 23.2835 99.4754 17.3105 104.467 12.3188C120.226 -3.43959 145.775 -3.43959 161.533 12.3188C177.292 28.0771 177.292 53.6265 161.533 69.3849C156.541 74.3767 150.568 77.7865 144.236 79.6158L144.236 79.6156L144.223 79.6198C140.915 80.6734 137.104 81.4946 132.912 82.3973L132.89 82.4019C119.188 85.3524 101.634 89.1323 85.7715 104.71C85.7293 104.626 85.6828 104.536 85.632 104.438C85.3334 103.864 84.8847 103.049 84.2813 102.08C83.0752 100.143 81.247 97.5829 78.7581 95.0939C76.2692 92.605 73.7092 90.7768 71.7721 89.5707C70.803 88.9673 69.9883 88.5186 69.4141 88.22C69.3163 88.1692 69.2255 88.1227 69.1421 88.0806C84.7197 72.218 88.4996 54.664 91.4501 40.9618L91.4548 40.9401C92.3574 36.7482 93.1786 32.9364 94.2323 29.6293ZM171.768 236.371L171.768 236.371L171.764 236.384C169.934 242.717 166.525 248.69 161.533 253.682C145.774 269.44 120.225 269.44 104.467 253.682C88.7084 237.923 88.7084 212.374 104.467 196.616C109.459 191.624 115.432 188.214 121.764 186.385L121.764 186.385L121.777 186.381C125.085 185.327 128.896 184.506 133.088 183.603L133.11 183.598C146.812 180.648 164.366 176.868 180.229 161.29C180.271 161.374 180.317 161.465 180.368 161.562C180.667 162.137 181.115 162.951 181.719 163.92C182.925 165.858 184.753 168.418 187.242 170.906C189.731 173.395 192.291 175.224 194.228 176.43C195.197 177.033 196.012 177.482 196.586 177.78C196.684 177.831 196.774 177.878 196.858 177.92C181.28 193.782 177.5 211.336 174.55 225.039L174.545 225.06C173.643 229.252 172.821 233.064 171.768 236.371Z" stroke="black" stroke-opacity="0.1" stroke-linejoin="round"/>
  <path d="M 186.058 145.064 C 187.939 151.551 191.443 157.669 196.569 162.782 C 212.758 178.922 239.004 178.922 255.192 162.782 C 271.381 146.641 271.381 120.472 255.192 104.33 C 250.064 99.218 243.928 95.725 237.422 93.85 C 234.038 92.776 230.145 91.941 225.898 91.028 C 211.848 88.012 193.932 84.165 177.81 68.091 C 177.81 68.091 175.465 73.351 170.482 78.32 C 165.499 83.287 160.223 85.625 160.223 85.625 C 176.345 101.7 180.203 119.565 183.229 133.574 C 184.143 137.807 184.981 141.691 186.058 145.064 Z" fill="url(#paint1_linear_361_1710)" style=""/>
  <path d="M 92.556 28.819 C 94.436 22.332 97.94 16.214 103.067 11.101 C 119.255 -5.04 145.5 -5.04 161.689 11.101 C 177.878 27.242 177.878 53.412 161.689 69.552 C 156.562 74.664 150.426 78.157 143.919 80.031 C 140.537 81.106 136.641 81.941 132.395 82.854 C 118.346 85.87 100.429 89.717 84.308 105.792 C 84.308 105.792 81.962 100.531 76.981 95.562 C 71.997 90.595 66.72 88.256 66.72 88.256 C 82.842 72.181 86.701 54.317 89.726 40.308 C 90.641 36.075 91.478 32.192 92.556 28.819 Z" fill="url(#paint2_linear_361_1710)" style=""/>
  <path d="M 172.199 238.293 C 170.319 244.781 166.816 250.898 161.689 256.011 C 145.5 272.152 119.254 272.152 103.067 256.011 C 86.879 239.871 86.879 213.7 103.067 197.56 C 108.195 192.448 114.33 188.955 120.836 187.08 C 124.219 186.006 128.114 185.171 132.361 184.258 C 146.41 181.241 164.327 177.395 180.448 161.321 C 180.448 161.321 182.794 166.581 187.775 171.55 C 192.759 176.518 198.035 178.856 198.035 178.856 C 181.912 194.93 178.054 212.795 175.03 226.804 C 174.116 231.037 173.277 234.921 172.199 238.293 Z" fill="url(#paint3_linear_361_1710)" style=""/>
  <path d="M 79.753 122.564 C 77.872 116.077 74.369 109.959 69.242 104.846 C 53.054 88.706 26.808 88.706 10.62 104.846 C -5.568 120.988 -5.568 147.157 10.62 163.298 C 15.747 168.41 21.884 171.903 28.39 173.777 C 31.773 174.852 35.667 175.687 39.913 176.6 C 53.963 179.616 71.88 183.463 88.002 199.537 C 88.002 199.537 90.347 194.277 95.329 189.308 C 100.312 184.341 105.589 182.003 105.589 182.003 C 89.467 165.928 85.608 148.063 82.584 134.055 C 81.668 129.821 80.83 125.938 79.753 122.564 Z" fill="url(#paint0_linear_361_1710)" style=""/>
  <g transform="matrix(0.10000000149011612, 0, 0, -0.10000000149011612, 313.5267333984375, 247.20864868164065)" fill="#000000" stroke="none">
    <path d="M1150 1150 l0 -500 125 0 125 0 -2 168 c-3 178 -1 169 -48 163 -6 -1 -10 -53 -10 -136 l0 -135 -65 0 -65 0 0 440 0 441 63 -3 62 -3 5 -135 5 -135 25 0 25 0 3 168 2 167 -125 0 -125 0 0 -500z"/>
    <path d="M1730 1465 l0 -185 -215 0 -216 0 2 133 1 132 -31 3 -31 3 0 -150 c0 -82 3 -156 6 -165 5 -14 39 -16 275 -16 l269 0 0 215 0 215 -30 0 -30 0 0 -185z"/>
    <path d="M1840 1435 l0 -215 25 0 25 0 2 182 c3 164 5 183 20 186 17 3 18 -26 20 -465 l3 -468 28 -3 27 -3 0 500 0 501 -75 0 -75 0 0 -215z"/>
    <path d="M2547 1613 c-14 -36 -45 -106 -103 -231 -13 -29 -24 -55 -24 -58 0 -3 -15 -38 -34 -77 -18 -40 -40 -88 -49 -107 -43 -97 -71 -160 -93 -207 -13 -28 -24 -54 -24 -56 0 -7 -68 -155 -86 -189 -8 -14 -14 -29 -14 -32 0 -3 63 -6 141 -6 l140 0 15 38 c28 71 18 67 173 70 147 3 156 6 127 45 -11 15 -32 17 -155 17 l-141 0 -28 -57 -27 -58 -77 -3 c-43 -2 -78 1 -78 6 0 10 59 151 95 227 24 52 39 86 75 170 11 28 28 62 36 77 8 15 21 44 28 65 8 21 33 79 56 128 63 135 70 152 70 167 1 24 36 61 53 55 9 -3 25 -28 37 -54 11 -26 25 -56 30 -65 6 -10 10 -25 10 -34 0 -9 13 -44 29 -78 16 -33 38 -83 49 -111 11 -27 27 -63 36 -80 9 -16 16 -33 16 -37 0 -3 15 -39 34 -80 18 -40 45 -101 60 -135 14 -35 37 -86 50 -115 46 -103 48 -99 -31 -96 l-68 3 -22 45 c-12 25 -32 69 -44 98 l-21 52 -225 0 c-204 0 -224 -2 -230 -17 -3 -10 -19 -46 -34 -79 -16 -34 -29 -65 -29 -68 0 -3 15 -6 33 -6 28 0 34 5 50 43 9 23 17 48 17 55 0 9 47 12 195 12 131 0 195 -3 195 -11 0 -5 11 -34 24 -62 13 -29 31 -69 40 -89 l15 -38 135 0 c75 0 136 2 136 5 0 3 -4 13 -10 23 -5 9 -21 44 -36 77 -58 129 -96 212 -119 258 -14 27 -25 54 -25 59 0 6 -13 38 -29 72 -75 160 -91 196 -157 346 -14 30 -36 79 -51 108 -25 52 -26 52 -73 52 -46 0 -48 -2 -63 -37z"/>
    <path d="M3180 1575 l0 -75 303 2 302 3 3 23 3 22 -275 0 c-154 0 -277 4 -280 9 -4 5 -3 16 0 25 5 14 41 16 300 16 l294 0 0 -70 0 -71 -172 1 -173 2 -3 -347 c-2 -361 -1 -375 39 -375 18 0 19 16 21 333 l3 332 163 1 c90 1 168 6 173 11 5 5 8 59 7 119 l-3 109 -352 3 -353 2 0 -75z"/>
    <path d="M5647 1644 c-4 -4 -7 -229 -7 -501 l0 -494 123 3 122 3 0 495 0 495 -25 0 -25 0 -3 -467 -2 -468 -65 0 -65 0 0 439 c0 432 4 482 31 440 5 -8 9 -201 8 -429 l0 -415 28 0 28 0 0 450 0 450 -70 3 c-39 1 -74 0 -78 -4z"/>
    <path d="M6217 1644 c-4 -4 -7 -229 -7 -501 l0 -494 128 3 127 3 0 495 0 495 -25 0 -25 0 -3 -467 -2 -468 -70 0 -70 0 0 440 c0 395 2 441 16 447 9 3 20 0 25 -8 5 -8 9 -201 8 -429 l0 -415 25 -3 c19 -3 27 2 31 20 3 13 4 217 3 453 l-3 430 -75 3 c-42 1 -79 0 -83 -4z"/>
    <path d="M7212 1638 c-7 -7 -12 -16 -12 -21 0 -8 -20 -53 -85 -192 -18 -38 -40 -88 -50 -110 -9 -22 -30 -69 -47 -105 -16 -36 -34 -74 -38 -85 -5 -11 -19 -42 -30 -70 -28 -64 -54 -122 -95 -210 -18 -38 -40 -88 -49 -110 -9 -22 -21 -47 -26 -56 -5 -9 -6 -20 -3 -23 4 -3 66 -6 139 -6 l133 0 26 55 25 55 140 0 c147 0 157 3 127 43 -11 16 -29 17 -156 15 -116 -2 -145 -6 -151 -18 -5 -8 -16 -34 -26 -57 l-17 -43 -73 0 c-76 0 -91 7 -75 37 9 16 42 90 113 253 10 25 23 54 28 65 5 11 18 43 30 70 41 95 68 156 120 270 47 102 57 126 74 168 25 61 33 53 106 -108 18 -38 45 -97 61 -131 16 -33 29 -64 29 -68 0 -5 13 -36 28 -70 16 -33 36 -77 44 -96 9 -19 27 -60 41 -90 14 -30 39 -86 56 -123 17 -38 34 -79 37 -93 3 -13 10 -27 15 -30 5 -3 9 -16 9 -30 0 -23 -3 -24 -57 -24 -32 0 -63 4 -69 8 -9 6 -61 107 -55 107 1 0 -9 20 -22 45 l-24 45 -221 3 c-193 2 -222 0 -222 -13 0 -8 -4 -15 -10 -15 -5 0 -10 -6 -10 -12 -1 -7 -9 -31 -20 -53 -28 -58 -26 -77 6 -73 29 3 36 11 59 71 l15 37 188 0 189 0 25 -57 c14 -32 33 -77 43 -100 l19 -43 128 0 c135 0 143 3 118 48 -5 9 -18 37 -29 62 -10 25 -38 86 -61 135 -49 107 -57 124 -105 235 -20 47 -47 108 -60 135 -13 28 -34 75 -48 105 -14 30 -42 91 -62 135 -20 44 -43 95 -51 113 -13 29 -19 32 -57 32 -24 0 -48 -5 -55 -12z"/>
    <path d="M465 1633 c-82 -19 -129 -42 -195 -93 -88 -69 -146 -151 -176 -250 -10 -30 -21 -59 -26 -64 -12 -14 -10 -156 2 -156 6 0 10 -9 10 -19 0 -27 48 -137 82 -187 59 -88 149 -152 278 -198 51 -18 225 -22 235 -6 3 6 16 10 29 10 12 0 31 7 42 15 10 8 26 15 34 15 26 0 142 81 136 95 -9 24 -121 194 -127 195 -4 0 -38 -18 -75 -40 -61 -36 -76 -40 -134 -40 -106 0 -187 52 -230 145 -25 55 -26 144 -3 193 22 46 99 122 123 122 10 0 22 5 25 10 3 6 38 10 76 10 63 0 76 -4 125 -35 30 -19 58 -35 62 -35 5 0 29 24 55 54 l46 53 -27 26 c-94 89 -251 120 -379 77 -37 -13 -84 -33 -104 -46 -65 -41 -133 -132 -164 -219 -34 -94 -17 -236 38 -321 33 -52 123 -137 167 -158 76 -36 240 -60 255 -36 3 6 15 10 27 10 20 0 82 25 105 43 9 7 9 13 0 28 -15 24 -20 24 -92 -6 -173 -71 -375 25 -442 211 -26 73 -22 175 10 246 32 72 97 142 162 176 44 24 61 27 150 27 90 0 105 -3 157 -29 37 -19 55 -33 51 -42 -7 -19 -17 -18 -91 12 -154 61 -304 1 -383 -154 -33 -64 -34 -177 -1 -245 74 -157 253 -222 404 -147 33 16 63 30 67 30 8 0 71 -96 71 -109 0 -11 -94 -57 -159 -77 -193 -58 -423 51 -514 243 -30 64 -32 75 -32 183 0 107 2 119 31 180 126 268 446 338 692 153 26 -20 36 -22 47 -13 31 26 8 57 -80 105 -85 47 -158 65 -254 64 -47 -1 -95 -3 -106 -6z"/>
    <path d="M4805 1634 c-28 -7 -53 -17 -110 -45 -53 -25 -165 -125 -165 -146 0 -7 -4 -13 -8 -13 -5 0 -19 -24 -32 -52 -12 -29 -28 -64 -34 -77 -6 -14 -11 -80 -11 -155 0 -129 1 -132 34 -201 63 -130 190 -239 326 -280 56 -17 220 -20 230 -5 3 6 15 10 26 10 26 0 101 34 167 76 l52 34 -2 203 -3 202 -180 0 -180 0 -3 -27 -3 -27 153 -3 153 -3 0 -159 c0 -148 -1 -160 -20 -170 -11 -6 -22 -14 -25 -17 -7 -9 -68 -36 -120 -53 -51 -18 -215 -22 -225 -6 -3 5 -13 10 -21 10 -44 0 -124 52 -192 125 -40 42 -72 82 -72 89 0 6 -8 25 -17 41 -26 44 -26 286 0 330 9 17 17 34 17 38 0 19 139 167 157 167 7 0 13 4 13 9 0 5 12 12 27 16 15 3 30 10 33 15 11 18 166 31 235 20 59 -9 179 -58 195 -78 3 -4 15 -16 28 -26 21 -18 23 -18 41 -2 20 19 18 46 -4 46 -6 0 -20 10 -31 21 -10 12 -50 37 -89 57 -67 33 -75 35 -195 38 -69 1 -134 1 -145 -2z"/>
    <path d="M4835 1540 c-98 -29 -113 -38 -180 -105 -39 -38 -77 -86 -84 -105 -7 -19 -18 -46 -25 -59 -6 -13 -11 -67 -11 -120 0 -131 32 -203 132 -303 55 -55 142 -90 261 -105 62 -7 178 30 235 76 15 12 17 32 17 143 l0 128 -135 0 -135 0 0 -75 0 -75 61 0 c54 0 60 -2 49 -15 -9 -11 -32 -15 -82 -15 -82 0 -153 31 -189 82 -13 18 -26 35 -29 38 -32 30 -33 168 -2 229 62 119 204 166 320 107 27 -14 54 -32 62 -41 12 -14 16 -13 47 17 19 18 44 46 55 61 20 27 20 29 2 49 -11 11 -50 36 -89 55 -61 31 -81 36 -160 39 -49 2 -103 -1 -120 -6z"/>
    <path d="M2603 1498 c-12 -17 -71 -143 -106 -228 -16 -39 -76 -176 -113 -258 -13 -29 -24 -57 -24 -62 0 -6 79 -10 205 -10 137 0 205 3 205 11 0 5 -11 30 -25 55 -13 24 -22 44 -19 44 2 0 -11 30 -30 68 -19 37 -44 88 -55 115 -21 49 -35 59 -44 30 -3 -10 -24 -62 -46 -116 -23 -54 -41 -103 -41 -108 0 -5 11 -9 25 -9 24 0 43 27 60 88 3 12 10 22 15 22 9 0 70 -123 70 -141 0 -5 -51 -9 -115 -9 -122 0 -130 4 -105 48 5 9 39 89 76 177 37 88 70 164 74 168 4 4 13 -7 20 -25 7 -18 31 -71 52 -116 21 -46 38 -86 38 -88 0 -3 36 -87 60 -139 5 -11 34 -76 63 -145 52 -119 56 -125 86 -128 37 -4 38 2 7 70 -25 53 -68 148 -101 223 -10 22 -42 91 -71 153 -30 62 -54 117 -54 123 0 5 -22 52 -49 104 -35 68 -51 92 -58 83z"/>
    <path d="M7238 1472 c-9 -20 -24 -55 -33 -77 -32 -76 -76 -171 -144 -316 -17 -36 -31 -70 -31 -75 0 -5 -7 -21 -14 -36 l-15 -28 204 0 c112 0 206 3 208 8 5 7 -8 38 -63 157 -52 112 -70 154 -70 164 0 6 -6 11 -13 11 -13 0 -31 -36 -43 -82 -3 -16 -10 -28 -15 -28 -5 0 -9 -8 -9 -17 0 -10 -11 -39 -24 -65 -26 -51 -25 -58 11 -58 19 0 28 11 48 55 23 50 45 72 45 44 0 -5 8 -29 19 -52 42 -94 48 -87 -88 -87 l-120 0 15 38 c9 20 20 41 25 46 5 6 9 16 9 24 0 8 13 41 28 75 16 34 37 85 47 112 21 56 43 95 55 95 4 0 11 -11 14 -24 3 -14 20 -55 37 -93 17 -37 39 -87 49 -109 46 -102 114 -253 131 -294 44 -100 54 -115 82 -118 31 -4 34 7 13 46 -34 63 -86 182 -86 196 0 9 -4 16 -10 16 -5 0 -10 7 -10 16 0 9 -6 28 -14 42 -26 51 -96 202 -96 209 0 3 -13 34 -29 67 -47 98 -71 154 -71 165 0 25 -26 8 -42 -27z"/>
    <path d="M3308 1462 l-128 -3 0 -24 c0 -24 1 -24 103 -27 l102 -3 3 -377 2 -378 130 0 130 0 0 360 0 360 -30 0 -30 0 0 -330 0 -330 -70 0 -70 0 0 374 c0 206 -3 376 -7 378 -5 2 -65 2 -135 0z"/>
    <path d="M1242 1148 l3 -23 298 -3 297 -2 -2 -203 c-3 -201 -3 -202 -25 -205 l-23 -3 0 185 0 186 -272 -2 -273 -3 0 -170 0 -170 27 -3 27 -3 3 143 3 143 212 3 213 2 2 -182 3 -183 75 0 75 0 3 258 2 257 -326 0 -325 0 3 -22z"/>
  </g>
</svg>