<?xml version="1.0" encoding="utf-8"?>
<svg viewBox="0 0 1143 266" fill="none" xmlns="http://www.w3.org/2000/svg">
  <defs>
    <linearGradient id="paint1_linear_361_1710" x1="416.035" y1="964.232" x2="393.734" y2="-97.7984" gradientUnits="userSpaceOnUse" gradientTransform="matrix(0.290852, 0, 0, 0.290001, -0.939273, -1.950574)">
      <stop stop-color="#1C1C20"/>
      <stop offset="1" stop-color="#066f4e"/>
    </linearGradient>
    <linearGradient id="paint2_linear_361_1710" x1="416.035" y1="964.232" x2="393.734" y2="-97.7984" gradientUnits="userSpaceOnUse" gradientTransform="matrix(0.290852, 0, 0, 0.290001, -0.939273, -1.950574)">
      <stop stop-color="#1C1C20"/>
      <stop offset="1" stop-color="#066f4e"/>
    </linearGradient>
    <linearGradient id="paint3_linear_361_1710" x1="416.035" y1="964.232" x2="393.734" y2="-97.7984" gradientUnits="userSpaceOnUse" gradientTransform="matrix(0.290852, 0, 0, 0.290001, -0.939273, -1.950574)">
      <stop stop-color="#066f4e"/>
      <stop offset="1" stop-color="#1C1C20"/>
    </linearGradient>
    <linearGradient id="paint0_linear_361_1710" x1="416.035" y1="964.232" x2="393.734" y2="-97.7984" gradientUnits="userSpaceOnUse" gradientTransform="matrix(0.290852, 0, 0, 0.290001, 0.117199, -1.43439)">
      <stop stop-color="#066f4e"/>
      <stop offset="1" stop-color="#1C1C20"/>
    </linearGradient>
  </defs>
  <path d="M 187.696 144.118 C 189.577 150.605 193.081 156.723 198.207 161.836 C 214.396 177.976 240.642 177.976 256.83 161.836 C 273.019 145.695 273.019 119.526 256.83 103.384 C 251.702 98.272 245.566 94.779 239.06 92.904 C 235.676 91.83 231.783 90.995 227.536 90.082 C 213.486 87.066 195.57 83.219 179.448 67.145 C 179.448 67.145 177.103 72.405 172.12 77.374 C 167.137 82.341 161.861 84.679 161.861 84.679 C 177.983 100.754 181.841 118.619 184.867 132.628 C 185.781 136.861 186.619 140.745 187.696 144.118 Z" fill="url(#paint1_linear_361_1710)" style="" transform="matrix(1, 0, 0, 1, 0, -2.842170943040401e-14)"/>
  <path d="M 94.194 27.873 C 96.074 21.386 99.578 15.268 104.705 10.155 C 120.893 -5.986 147.138 -5.986 163.327 10.155 C 179.516 26.296 179.516 52.466 163.327 68.606 C 158.2 73.718 152.064 77.211 145.557 79.085 C 142.175 80.16 138.279 80.995 134.033 81.908 C 119.984 84.924 102.067 88.771 85.946 104.846 C 85.946 104.846 83.6 99.585 78.619 94.616 C 73.635 89.649 68.358 87.31 68.358 87.31 C 84.48 71.235 88.339 53.371 91.364 39.362 C 92.279 35.129 93.116 31.246 94.194 27.873 Z" fill="url(#paint2_linear_361_1710)" style="" transform="matrix(1, 0, 0, 1, 0, -2.842170943040401e-14)"/>
  <path d="M 173.837 237.347 C 171.957 243.835 168.454 249.952 163.327 255.065 C 147.138 271.206 120.892 271.206 104.705 255.065 C 88.517 238.925 88.517 212.754 104.705 196.614 C 109.833 191.502 115.968 188.009 122.474 186.134 C 125.857 185.06 129.752 184.225 133.999 183.312 C 148.048 180.295 165.965 176.449 182.086 160.375 C 182.086 160.375 184.432 165.635 189.413 170.604 C 194.397 175.572 199.673 177.91 199.673 177.91 C 183.55 193.984 179.692 211.849 176.668 225.858 C 175.754 230.091 174.915 233.975 173.837 237.347 Z" fill="url(#paint3_linear_361_1710)" style="" transform="matrix(1, 0, 0, 1, 0, -2.842170943040401e-14)"/>
  <path d="M 81.391 121.618 C 79.51 115.131 76.007 109.013 70.88 103.9 C 54.692 87.76 28.446 87.76 12.258 103.9 C -3.93 120.042 -3.93 146.211 12.258 162.352 C 17.385 167.464 23.522 170.957 30.028 172.831 C 33.411 173.906 37.305 174.741 41.551 175.654 C 55.601 178.67 73.518 182.517 89.64 198.591 C 89.64 198.591 91.985 193.331 96.967 188.362 C 101.95 183.395 107.227 181.057 107.227 181.057 C 91.105 164.982 87.246 147.117 84.222 133.109 C 83.306 128.875 82.468 124.992 81.391 121.618 Z" fill="url(#paint0_linear_361_1710)" style="" transform="matrix(1, 0, 0, 1, 0, -2.842170943040401e-14)"/>
  <path d="M 428.155 133.085 L 428.155 183.085 L 440.655 183.085 L 453.155 183.085 L 452.955 166.285 C 452.655 148.485 452.855 149.385 448.155 149.985 C 447.555 150.085 447.155 155.285 447.155 163.585 L 447.155 177.085 L 440.655 177.085 L 434.155 177.085 L 434.155 133.085 L 434.155 88.985 L 440.455 89.285 L 446.655 89.585 L 447.155 103.085 L 447.655 116.585 L 450.155 116.585 L 452.655 116.585 L 452.955 99.785 L 453.155 83.085 L 440.655 83.085 L 428.155 83.085 L 428.155 133.085 Z" style="fill: rgb(251, 251, 251);" transform="matrix(1, 0, 0, 1, 0, -2.842170943040401e-14)"/>
  <path d="M 486.155 101.585 L 486.155 120.085 L 464.655 120.085 L 443.055 120.085 L 443.255 106.785 L 443.355 93.585 L 440.255 93.285 L 437.155 92.985 L 437.155 107.985 C 437.155 116.185 437.455 123.585 437.755 124.485 C 438.255 125.885 441.655 126.085 465.255 126.085 L 492.155 126.085 L 492.155 104.585 L 492.155 83.085 L 489.155 83.085 L 486.155 83.085 L 486.155 101.585 Z" style="fill: rgb(251, 251, 251);" transform="matrix(1, 0, 0, 1, 0, -2.842170943040401e-14)"/>
  <path d="M 497.155 104.585 L 497.155 126.085 L 499.655 126.085 L 502.155 126.085 L 502.355 107.885 C 502.655 91.485 502.855 89.585 504.355 89.285 C 506.055 88.985 506.155 91.885 506.355 135.785 L 506.655 182.585 L 509.455 182.885 L 512.155 183.185 L 512.155 133.185 L 512.155 83.085 L 504.655 83.085 L 497.155 83.085 L 497.155 104.585 Z" style="fill: rgb(251, 251, 251);" transform="matrix(1, 0, 0, 1, 0, -2.842170943040401e-14)"/>
  <path d="M 567.855 86.785 C 566.455 90.385 563.355 97.385 557.555 109.885 C 556.255 112.785 555.155 115.385 555.155 115.685 C 555.155 115.985 553.655 119.485 551.755 123.385 C 549.955 127.385 547.755 132.185 546.855 134.085 C 542.555 143.785 539.755 150.085 537.555 154.785 C 536.255 157.585 535.155 160.185 535.155 160.385 C 535.155 161.085 528.355 175.885 526.555 179.285 C 525.755 180.685 525.155 182.185 525.155 182.485 C 525.155 182.785 531.455 183.085 539.255 183.085 L 553.255 183.085 L 554.755 179.285 C 557.555 172.185 556.555 172.585 572.055 172.285 C 586.755 171.985 587.655 171.685 584.755 167.785 C 583.655 166.285 581.555 166.085 569.255 166.085 L 555.155 166.085 L 552.355 171.785 L 549.655 177.585 L 541.955 177.885 C 537.655 178.085 534.155 177.785 534.155 177.285 C 534.155 176.285 540.055 162.185 543.655 154.585 C 546.055 149.385 547.555 145.985 551.155 137.585 C 552.255 134.785 553.955 131.385 554.755 129.885 C 555.555 128.385 556.855 125.485 557.555 123.385 C 558.355 121.285 560.855 115.485 563.155 110.585 C 569.455 97.085 570.155 95.385 570.155 93.885 C 570.255 91.485 573.755 87.785 575.455 88.385 C 576.355 88.685 577.955 91.185 579.155 93.785 C 580.255 96.385 581.655 99.385 582.155 100.285 C 582.755 101.285 583.155 102.785 583.155 103.685 C 583.155 104.585 584.455 108.085 586.055 111.485 C 587.655 114.785 589.855 119.785 590.955 122.585 C 592.055 125.285 593.655 128.885 594.555 130.585 C 595.455 132.185 596.155 133.885 596.155 134.285 C 596.155 134.585 597.655 138.185 599.555 142.285 C 601.355 146.285 604.055 152.385 605.555 155.785 C 606.955 159.285 609.255 164.385 610.555 167.285 C 615.155 177.585 615.355 177.185 607.455 176.885 L 600.655 176.585 L 598.455 172.085 C 597.255 169.585 595.255 165.185 594.055 162.285 L 591.955 157.085 L 569.455 157.085 C 549.055 157.085 547.055 157.285 546.455 158.785 C 546.155 159.785 544.555 163.385 543.055 166.685 C 541.455 170.085 540.155 173.185 540.155 173.485 C 540.155 173.785 541.655 174.085 543.455 174.085 C 546.255 174.085 546.855 173.585 548.455 169.785 C 549.355 167.485 550.155 164.985 550.155 164.285 C 550.155 163.385 554.855 163.085 569.655 163.085 C 582.755 163.085 589.155 163.385 589.155 164.185 C 589.155 164.685 590.255 167.585 591.555 170.385 C 592.855 173.285 594.655 177.285 595.555 179.285 L 597.055 183.085 L 610.555 183.085 C 618.055 183.085 624.155 182.885 624.155 182.585 C 624.155 182.285 623.755 181.285 623.155 180.285 C 622.655 179.385 621.055 175.885 619.555 172.585 C 613.755 159.685 609.955 151.385 607.655 146.785 C 606.255 144.085 605.155 141.385 605.155 140.885 C 605.155 140.285 603.855 137.085 602.255 133.685 C 594.755 117.685 593.155 114.085 586.555 99.085 C 585.155 96.085 582.955 91.185 581.455 88.285 C 578.955 83.085 578.855 83.085 574.155 83.085 C 569.555 83.085 569.355 83.285 567.855 86.785 Z" style="fill: rgb(251, 251, 251);" transform="matrix(1, 0, 0, 1, 0, -2.842170943040401e-14)"/>
  <path d="M 631.155 90.585 L 631.155 98.085 L 661.455 97.885 L 691.655 97.585 L 691.955 95.285 L 692.255 93.085 L 664.755 93.085 C 649.355 93.085 637.055 92.685 636.755 92.185 C 636.355 91.685 636.455 90.585 636.755 89.685 C 637.255 88.285 640.855 88.085 666.755 88.085 L 696.155 88.085 L 696.155 95.085 L 696.155 102.185 L 678.955 102.085 L 661.655 101.885 L 661.355 136.585 C 661.155 172.685 661.255 174.085 665.255 174.085 C 667.055 174.085 667.155 172.485 667.355 140.785 L 667.655 107.585 L 683.955 107.485 C 692.955 107.385 700.755 106.885 701.255 106.385 C 701.755 105.885 702.055 100.485 701.955 94.485 L 701.655 83.585 L 666.455 83.285 L 631.155 83.085 L 631.155 90.585 Z" style="fill: rgb(251, 251, 251);" transform="matrix(1, 0, 0, 1, 0, -2.842170943040401e-14)"/>
  <path d="M 877.855 83.685 C 877.455 84.085 877.155 106.585 877.155 133.785 L 877.155 183.185 L 889.455 182.885 L 901.655 182.585 L 901.655 133.085 L 901.655 83.585 L 899.155 83.585 L 896.655 83.585 L 896.355 130.285 L 896.155 177.085 L 889.655 177.085 L 883.155 177.085 L 883.155 133.185 C 883.155 89.985 883.555 84.985 886.255 89.185 C 886.755 89.985 887.155 109.285 887.055 132.085 L 887.055 173.585 L 889.855 173.585 L 892.655 173.585 L 892.655 128.585 L 892.655 83.585 L 885.655 83.285 C 881.755 83.185 878.255 83.285 877.855 83.685 Z" style="fill: rgb(251, 251, 251);" transform="matrix(1, 0, 0, 1, 0, -2.842170943040401e-14)"/>
  <path d="M 934.855 83.685 C 934.455 84.085 934.155 106.585 934.155 133.785 L 934.155 183.185 L 946.955 182.885 L 959.655 182.585 L 959.655 133.085 L 959.655 83.585 L 957.155 83.585 L 954.655 83.585 L 954.355 130.285 L 954.155 177.085 L 947.155 177.085 L 940.155 177.085 L 940.155 133.085 C 940.155 93.585 940.355 88.985 941.755 88.385 C 942.655 88.085 943.755 88.385 944.255 89.185 C 944.755 89.985 945.155 109.285 945.055 132.085 L 945.055 173.585 L 947.555 173.885 C 949.455 174.185 950.255 173.685 950.655 171.885 C 950.955 170.585 951.055 150.185 950.955 126.585 L 950.655 83.585 L 943.155 83.285 C 938.955 83.185 935.255 83.285 934.855 83.685 Z" style="fill: rgb(251, 251, 251);" transform="matrix(1, 0, 0, 1, 0, -2.842170943040401e-14)"/>
  <path d="M 1034.355 84.285 C 1033.655 84.985 1033.155 85.885 1033.155 86.385 C 1033.155 87.185 1031.155 91.685 1024.655 105.585 C 1022.855 109.385 1020.655 114.385 1019.655 116.585 C 1018.755 118.785 1016.655 123.485 1014.955 127.085 C 1013.355 130.685 1011.555 134.485 1011.155 135.585 C 1010.655 136.685 1009.255 139.785 1008.155 142.585 C 1005.355 148.985 1002.755 154.785 998.655 163.585 C 996.855 167.385 994.655 172.385 993.755 174.585 C 992.855 176.785 991.655 179.285 991.155 180.185 C 990.655 181.085 990.555 182.185 990.855 182.485 C 991.255 182.785 997.455 183.085 1004.755 183.085 L 1018.055 183.085 L 1020.655 177.585 L 1023.155 172.085 L 1037.155 172.085 C 1051.855 172.085 1052.855 171.785 1049.855 167.785 C 1048.755 166.185 1046.955 166.085 1034.255 166.285 C 1022.655 166.485 1019.755 166.885 1019.155 168.085 C 1018.655 168.885 1017.555 171.485 1016.555 173.785 L 1014.855 178.085 L 1007.555 178.085 C 999.955 178.085 998.455 177.385 1000.055 174.385 C 1000.955 172.785 1004.255 165.385 1011.355 149.085 C 1012.355 146.585 1013.655 143.685 1014.155 142.585 C 1014.655 141.485 1015.955 138.285 1017.155 135.585 C 1021.255 126.085 1023.955 119.985 1029.155 108.585 C 1033.855 98.385 1034.855 95.985 1036.555 91.785 C 1039.055 85.685 1039.855 86.485 1047.155 102.585 C 1048.955 106.385 1051.655 112.285 1053.255 115.685 C 1054.855 118.985 1056.155 122.085 1056.155 122.485 C 1056.155 122.985 1057.455 126.085 1058.955 129.485 C 1060.555 132.785 1062.555 137.185 1063.355 139.085 C 1064.255 140.985 1066.055 145.085 1067.455 148.085 C 1068.855 151.085 1071.355 156.685 1073.055 160.385 C 1074.755 164.185 1076.455 168.285 1076.755 169.685 C 1077.055 170.985 1077.755 172.385 1078.255 172.685 C 1078.755 172.985 1079.155 174.285 1079.155 175.685 C 1079.155 177.985 1078.855 178.085 1073.455 178.085 C 1070.255 178.085 1067.155 177.685 1066.555 177.285 C 1065.655 176.685 1060.455 166.585 1061.055 166.585 C 1061.155 166.585 1060.155 164.585 1058.855 162.085 L 1056.455 157.585 L 1034.355 157.285 C 1015.055 157.085 1012.155 157.285 1012.155 158.585 C 1012.155 159.385 1011.755 160.085 1011.155 160.085 C 1010.655 160.085 1010.155 160.685 1010.155 161.285 C 1010.055 161.985 1009.255 164.385 1008.155 166.585 C 1005.355 172.385 1005.555 174.285 1008.755 173.885 C 1011.655 173.585 1012.355 172.785 1014.655 166.785 L 1016.155 163.085 L 1034.955 163.085 L 1053.855 163.085 L 1056.355 168.785 C 1057.755 171.985 1059.655 176.485 1060.655 178.785 L 1062.555 183.085 L 1075.355 183.085 C 1088.855 183.085 1089.655 182.785 1087.155 178.285 C 1086.655 177.385 1085.355 174.585 1084.255 172.085 C 1083.255 169.585 1080.455 163.485 1078.155 158.585 C 1073.255 147.885 1072.455 146.185 1067.655 135.085 C 1065.655 130.385 1062.955 124.285 1061.655 121.585 C 1060.355 118.785 1058.255 114.085 1056.855 111.085 C 1055.455 108.085 1052.655 101.985 1050.655 97.585 C 1048.655 93.185 1046.355 88.085 1045.555 86.285 C 1044.255 83.385 1043.655 83.085 1039.855 83.085 C 1037.455 83.085 1035.055 83.585 1034.355 84.285 Z" style="fill: rgb(251, 251, 251);" transform="matrix(1, 0, 0, 1, 0, -2.842170943040401e-14)"/>
  <path d="M 359.655 84.785 C 351.455 86.685 346.755 88.985 340.155 94.085 C 331.355 100.985 325.555 109.185 322.555 119.085 C 321.555 122.085 320.455 124.985 319.955 125.485 C 318.755 126.885 318.955 141.085 320.155 141.085 C 320.755 141.085 321.155 141.985 321.155 142.985 C 321.155 145.685 325.955 156.685 329.355 161.685 C 335.255 170.485 344.255 176.885 357.155 181.485 C 362.255 183.285 379.655 183.685 380.655 182.085 C 380.955 181.485 382.255 181.085 383.555 181.085 C 384.755 181.085 386.655 180.385 387.755 179.585 C 388.755 178.785 390.355 178.085 391.155 178.085 C 393.755 178.085 405.355 169.985 404.755 168.585 C 403.855 166.185 392.655 149.185 392.055 149.085 C 391.655 149.085 388.255 150.885 384.555 153.085 C 378.455 156.685 376.955 157.085 371.155 157.085 C 360.555 157.085 352.455 151.885 348.155 142.585 C 345.655 137.085 345.555 128.185 347.855 123.285 C 350.055 118.685 357.755 111.085 360.155 111.085 C 361.155 111.085 362.355 110.585 362.655 110.085 C 362.955 109.485 366.455 109.085 370.255 109.085 C 376.555 109.085 377.855 109.485 382.755 112.585 C 385.755 114.485 388.555 116.085 388.955 116.085 C 389.455 116.085 391.855 113.685 394.455 110.685 L 399.055 105.385 L 396.355 102.785 C 386.955 93.885 371.255 90.785 358.455 95.085 C 354.755 96.385 350.055 98.385 348.055 99.685 C 341.555 103.785 334.755 112.885 331.655 121.585 C 328.255 130.985 329.955 145.185 335.455 153.685 C 338.755 158.885 347.755 167.385 352.155 169.485 C 359.755 173.085 376.155 175.485 377.655 173.085 C 377.955 172.485 379.155 172.085 380.355 172.085 C 382.355 172.085 388.555 169.585 390.855 167.785 C 391.755 167.085 391.755 166.485 390.855 164.985 C 389.355 162.585 388.855 162.585 381.655 165.585 C 364.355 172.685 344.155 163.085 337.455 144.485 C 334.855 137.185 335.255 126.985 338.455 119.885 C 341.655 112.685 348.155 105.685 354.655 102.285 C 359.055 99.885 360.755 99.585 369.655 99.585 C 378.655 99.585 380.155 99.885 385.355 102.485 C 389.055 104.385 390.855 105.785 390.455 106.685 C 389.755 108.585 388.755 108.485 381.355 105.485 C 365.955 99.385 350.955 105.385 343.055 120.885 C 339.755 127.285 339.655 138.585 342.955 145.385 C 350.355 161.085 368.255 167.585 383.355 160.085 C 386.655 158.485 389.655 157.085 390.055 157.085 C 390.855 157.085 397.155 166.685 397.155 167.985 C 397.155 169.085 387.755 173.685 381.255 175.685 C 361.955 181.485 338.955 170.585 329.855 151.385 C 326.855 144.985 326.655 143.885 326.655 133.085 C 326.655 122.385 326.855 121.185 329.755 115.085 C 342.355 88.285 374.355 81.285 398.955 99.785 C 401.555 101.785 402.555 101.985 403.655 101.085 C 406.755 98.485 404.455 95.385 395.655 90.585 C 387.155 85.885 379.855 84.085 370.255 84.185 C 365.555 84.285 360.755 84.485 359.655 84.785 Z" style="fill: rgb(251, 251, 251);" transform="matrix(1, 0, 0, 1, 0, -2.842170943040401e-14)"/>
  <path d="M 793.655 84.685 C 790.855 85.385 788.355 86.385 782.655 89.185 C 777.355 91.685 766.155 101.685 766.155 103.785 C 766.155 104.485 765.755 105.085 765.355 105.085 C 764.855 105.085 763.455 107.485 762.155 110.285 C 760.955 113.185 759.355 116.685 758.755 117.985 C 758.155 119.385 757.655 125.985 757.655 133.485 C 757.655 146.385 757.755 146.685 761.055 153.585 C 767.355 166.585 780.055 177.485 793.655 181.585 C 799.255 183.285 815.655 183.585 816.655 182.085 C 816.955 181.485 818.155 181.085 819.255 181.085 C 821.855 181.085 829.355 177.685 835.955 173.485 L 841.155 170.085 L 840.955 149.785 L 840.655 129.585 L 822.655 129.585 L 804.655 129.585 L 804.355 132.285 L 804.055 134.985 L 819.355 135.285 L 834.655 135.585 L 834.655 151.485 C 834.655 166.285 834.555 167.485 832.655 168.485 C 831.555 169.085 830.455 169.885 830.155 170.185 C 829.455 171.085 823.355 173.785 818.155 175.485 C 813.055 177.285 796.655 177.685 795.655 176.085 C 795.355 175.585 794.355 175.085 793.555 175.085 C 789.155 175.085 781.155 169.885 774.355 162.585 C 770.355 158.385 767.155 154.385 767.155 153.685 C 767.155 153.085 766.355 151.185 765.455 149.585 C 762.855 145.185 762.855 120.985 765.455 116.585 C 766.355 114.885 767.155 113.185 767.155 112.785 C 767.155 110.885 781.055 96.085 782.855 96.085 C 783.555 96.085 784.155 95.685 784.155 95.185 C 784.155 94.685 785.355 93.985 786.855 93.585 C 788.355 93.285 789.855 92.585 790.155 92.085 C 791.255 90.285 806.755 88.985 813.655 90.085 C 819.555 90.985 831.555 95.885 833.155 97.885 C 833.455 98.285 834.655 99.485 835.955 100.485 C 838.055 102.285 838.255 102.285 840.055 100.685 C 842.055 98.785 841.855 96.085 839.655 96.085 C 839.055 96.085 837.655 95.085 836.555 93.985 C 835.555 92.785 831.555 90.285 827.655 88.285 C 820.955 84.985 820.155 84.785 808.155 84.485 C 801.255 84.385 794.755 84.385 793.655 84.685 Z" style="fill: rgb(251, 251, 251);" transform="matrix(1, 0, 0, 1, 0, -2.842170943040401e-14)"/>
  <path d="M 796.655 94.085 C 786.855 96.985 785.355 97.885 778.655 104.585 C 774.755 108.385 770.955 113.185 770.255 115.085 C 769.555 116.985 768.455 119.685 767.755 120.985 C 767.155 122.285 766.655 127.685 766.655 132.985 C 766.655 146.085 769.855 153.285 779.855 163.285 C 785.355 168.785 794.055 172.285 805.955 173.785 C 812.155 174.485 823.755 170.785 829.455 166.185 C 830.955 164.985 831.155 162.985 831.155 151.885 L 831.155 139.085 L 817.655 139.085 L 804.155 139.085 L 804.155 146.585 L 804.155 154.085 L 810.255 154.085 C 815.655 154.085 816.255 154.285 815.155 155.585 C 814.255 156.685 811.955 157.085 806.955 157.085 C 798.755 157.085 791.655 153.985 788.055 148.885 C 786.755 147.085 785.455 145.385 785.155 145.085 C 781.955 142.085 781.855 128.285 784.955 122.185 C 791.155 110.285 805.355 105.585 816.955 111.485 C 819.655 112.885 822.355 114.685 823.155 115.585 C 824.355 116.985 824.755 116.885 827.855 113.885 C 829.755 112.085 832.255 109.285 833.355 107.785 C 835.355 105.085 835.355 104.885 833.555 102.885 C 832.455 101.785 828.555 99.285 824.655 97.385 C 818.555 94.285 816.555 93.785 808.655 93.485 C 803.755 93.285 798.355 93.585 796.655 94.085 Z" style="fill: rgb(251, 251, 251);" transform="matrix(1, 0, 0, 1, 0, -2.842170943040401e-14)"/>
  <path d="M 573.455 98.285 C 572.255 99.985 566.355 112.585 562.855 121.085 C 561.255 124.985 555.255 138.685 551.555 146.885 C 550.255 149.785 549.155 152.585 549.155 153.085 C 549.155 153.685 557.055 154.085 569.655 154.085 C 583.355 154.085 590.155 153.785 590.155 152.985 C 590.155 152.485 589.055 149.985 587.655 147.485 C 586.355 145.085 585.455 143.085 585.755 143.085 C 585.955 143.085 584.655 140.085 582.755 136.285 C 580.855 132.585 578.355 127.485 577.255 124.785 C 575.155 119.885 573.755 118.885 572.855 121.785 C 572.555 122.785 570.455 127.985 568.255 133.385 C 565.955 138.785 564.155 143.685 564.155 144.185 C 564.155 144.685 565.255 145.085 566.655 145.085 C 569.055 145.085 570.955 142.385 572.655 136.285 C 572.955 135.085 573.655 134.085 574.155 134.085 C 575.055 134.085 581.155 146.385 581.155 148.185 C 581.155 148.685 576.055 149.085 569.655 149.085 C 557.455 149.085 556.655 148.685 559.155 144.285 C 559.655 143.385 563.055 135.385 566.755 126.585 C 570.455 117.785 573.755 110.185 574.155 109.785 C 574.555 109.385 575.455 110.485 576.155 112.285 C 576.855 114.085 579.255 119.385 581.355 123.885 C 583.455 128.485 585.155 132.485 585.155 132.685 C 585.155 132.985 588.755 141.385 591.155 146.585 C 591.655 147.685 594.555 154.185 597.455 161.085 C 602.655 172.985 603.055 173.585 606.055 173.885 C 609.755 174.285 609.855 173.685 606.755 166.885 C 604.255 161.585 599.955 152.085 596.655 144.585 C 595.655 142.385 592.455 135.485 589.555 129.285 C 586.555 123.085 584.155 117.585 584.155 116.985 C 584.155 116.485 581.955 111.785 579.255 106.585 C 575.755 99.785 574.155 97.385 573.455 98.285 Z" style="fill: rgb(251, 251, 251);" transform="matrix(1, 0, 0, 1, 0, -2.842170943040401e-14)"/>
  <path d="M 1036.955 100.885 C 1036.055 102.885 1034.555 106.385 1033.655 108.585 C 1030.455 116.185 1026.055 125.685 1019.255 140.185 C 1017.555 143.785 1016.155 147.185 1016.155 147.685 C 1016.155 148.185 1015.455 149.785 1014.755 151.285 L 1013.255 154.085 L 1033.655 154.085 C 1044.855 154.085 1054.255 153.785 1054.455 153.285 C 1054.955 152.585 1053.655 149.485 1048.155 137.585 C 1042.955 126.385 1041.155 122.185 1041.155 121.185 C 1041.155 120.585 1040.555 120.085 1039.855 120.085 C 1038.555 120.085 1036.755 123.685 1035.555 128.285 C 1035.255 129.885 1034.555 131.085 1034.055 131.085 C 1033.555 131.085 1033.155 131.885 1033.155 132.785 C 1033.155 133.785 1032.055 136.685 1030.755 139.285 C 1028.155 144.385 1028.255 145.085 1031.855 145.085 C 1033.755 145.085 1034.655 143.985 1036.655 139.585 C 1038.955 134.585 1041.155 132.385 1041.155 135.185 C 1041.155 135.685 1041.955 138.085 1043.055 140.385 C 1047.255 149.785 1047.855 149.085 1034.255 149.085 L 1022.255 149.085 L 1023.755 145.285 C 1024.655 143.285 1025.755 141.185 1026.255 140.685 C 1026.755 140.085 1027.155 139.085 1027.155 138.285 C 1027.155 137.485 1028.455 134.185 1029.955 130.785 C 1031.555 127.385 1033.655 122.285 1034.655 119.585 C 1036.755 113.985 1038.955 110.085 1040.155 110.085 C 1040.555 110.085 1041.255 111.185 1041.555 112.485 C 1041.855 113.885 1043.555 117.985 1045.255 121.785 C 1046.955 125.485 1049.155 130.485 1050.155 132.685 C 1054.755 142.885 1061.555 157.985 1063.255 162.085 C 1067.655 172.085 1068.655 173.585 1071.455 173.885 C 1074.555 174.285 1074.855 173.185 1072.755 169.285 C 1069.355 162.985 1064.155 151.085 1064.155 149.685 C 1064.155 148.785 1063.755 148.085 1063.155 148.085 C 1062.655 148.085 1062.155 147.385 1062.155 146.485 C 1062.155 145.585 1061.555 143.685 1060.755 142.285 C 1058.155 137.185 1051.155 122.085 1051.155 121.385 C 1051.155 121.085 1049.855 117.985 1048.255 114.685 C 1043.555 104.885 1041.155 99.285 1041.155 98.185 C 1041.155 95.685 1038.555 97.385 1036.955 100.885 Z" style="fill: rgb(251, 251, 251);" transform="matrix(1, 0, 0, 1, 0, -2.842170943040401e-14)"/>
  <path d="M 643.955 101.885 L 631.155 102.185 L 631.155 104.585 C 631.155 106.985 631.255 106.985 641.455 107.285 L 651.655 107.585 L 651.955 145.285 L 652.155 183.085 L 665.155 183.085 L 678.155 183.085 L 678.155 147.085 L 678.155 111.085 L 675.155 111.085 L 672.155 111.085 L 672.155 144.085 L 672.155 177.085 L 665.155 177.085 L 658.155 177.085 L 658.155 139.685 C 658.155 119.085 657.855 102.085 657.455 101.885 C 656.955 101.685 650.955 101.685 643.955 101.885 Z" style="fill: rgb(251, 251, 251);" transform="matrix(1, 0, 0, 1, 0, -2.842170943040401e-14)"/>
  <path d="M 437.355 133.285 L 437.655 135.585 L 467.455 135.885 L 497.155 136.085 L 496.955 156.385 C 496.655 176.485 496.655 176.585 494.455 176.885 L 492.155 177.185 L 492.155 158.685 L 492.155 140.085 L 464.955 140.285 L 437.655 140.585 L 437.655 157.585 L 437.655 174.585 L 440.355 174.885 L 443.055 175.185 L 443.355 160.885 L 443.655 146.585 L 464.855 146.285 L 486.155 146.085 L 486.355 164.285 L 486.655 182.585 L 494.155 182.585 L 501.655 182.585 L 501.955 156.785 L 502.155 131.085 L 469.555 131.085 L 437.055 131.085 L 437.355 133.285 Z" style="fill: rgb(251, 251, 251);" transform="matrix(1, 0, 0, 1, 0, -2.842170943040401e-14)"/>
</svg>